<?xml version="1.0" standalone="no"?>
<!DOCTYPE svg PUBLIC "-//W3C//DTD SVG 20010904//EN"
 "http://www.w3.org/TR/2001/REC-SVG-20010904/DTD/svg10.dtd">
<svg version="1.0" xmlns="http://www.w3.org/2000/svg"
 width="680.000000pt" height="1022.000000pt" viewBox="0 0 680.000000 1022.000000"
 preserveAspectRatio="xMidYMid meet">

<g transform="translate(0.000000,1022.000000) scale(0.100000,-0.100000)"
fill="#000000" stroke="none">
<path d="M190 10178 c0 -24 -43 -1767 -94 -3875 -52 -2107 -93 -3840 -90
-3850 3 -14 204 -2421 204 -2446 0 -4 1436 -7 3190 -7 1755 0 3190 3 3190 7 0
25 201 2432 204 2446 3 10 -38 1743 -90 3850 -51 2108 -94 3851 -94 3875 l0
42 -3210 0 -3210 0 0 -42z m2782 -5450 c3 -62 3 -553 0 -1090 l-5 -978 -1253
0 -1254 0 0 138 c0 239 39 1924 46 1985 l7 57 1227 0 1227 0 5 -112z m1661
-20 c4 -66 7 -165 7 -218 0 -53 3 -158 7 -233 l6 -137 828 0 827 0 6 -82 c6
-85 26 -1093 26 -1275 l0 -103 -1253 0 -1254 0 -6 958 c-4 526 -4 1014 0 1085
l6 127 397 0 397 0 6 -122z"/>
</g>
</svg>
